<svg width="899" height="709" viewBox="0 0 899 709" fill="none" xmlns="http://www.w3.org/2000/svg">
<g filter="url(#filter0_d_1046_140)">
<path d="M731.681 74.6234L761.241 521.864C762.094 534.757 751.454 545.872 738.648 546.719L89.6523 589.614C79.7213 590.27 70.7696 584.563 66.8778 575.983C65.7526 573.52 65.0456 570.767 64.8556 567.892L35.2951 120.651C34.443 107.758 44.2114 96.7009 57.0171 95.8545L706.884 52.9014C717.425 52.2047 730.829 61.7306 731.681 74.6234Z" fill="url(#paint0_linear_1046_140)"/>
</g>
<path d="M101.27 564.174L102.894 588.74L89.6525 589.615C79.7216 590.271 70.7699 584.563 66.8781 575.984C65.7528 573.521 65.0459 570.768 64.8559 567.893L64.7695 566.586L101.27 564.174V564.174Z" fill="url(#paint1_linear_1046_140)" fill-opacity="0.16"/>
<path d="M35.2951 120.651L35.4909 123.613L70.1621 121.321L68.429 95.1002L57.0171 95.8545C44.2114 96.7009 34.4487 107.845 35.2951 120.651Z" fill="url(#paint2_linear_1046_140)" fill-opacity="0.5"/>
<path d="M67.6441 95.1519C54.8384 95.9983 45.0757 107.143 45.9221 119.949L75.4826 567.189C76.3347 580.082 87.4735 589.758 100.279 588.911L763.213 545.095C776.106 544.243 785.782 533.104 784.935 520.298L755.375 73.0571C754.523 60.1643 743.384 50.4887 730.578 51.3351L67.6441 95.1519Z" fill="url(#paint3_linear_1046_140)"/>
<g opacity="0.2">
<path d="M44.2225 174.011C45.2598 173.945 46.0468 173.05 45.9803 172.013C45.9138 170.975 45.019 170.188 43.9817 170.255C42.9444 170.321 42.1574 171.216 42.2239 172.253C42.2904 173.291 43.1852 174.078 44.2225 174.011Z" fill="#2D2D2D"/>
<path d="M44.6795 181.166C45.7169 181.1 46.5038 180.205 46.4374 179.168C46.3709 178.13 45.4761 177.343 44.4388 177.41C43.4014 177.476 42.6145 178.371 42.6809 179.408C42.7474 180.446 43.6422 181.233 44.6795 181.166Z" fill="#2D2D2D"/>
<path d="M45.1444 188.411C46.1817 188.344 46.9687 187.449 46.9022 186.412C46.8357 185.375 45.9409 184.588 44.9036 184.654C43.8663 184.721 43.0793 185.616 43.1458 186.653C43.2123 187.69 44.1071 188.477 45.1444 188.411Z" fill="#2D2D2D"/>
<path d="M45.6034 195.566C46.6407 195.499 47.4277 194.605 47.3612 193.567C47.2947 192.53 46.3999 191.743 45.3626 191.809C44.3253 191.876 43.5383 192.771 43.6048 193.808C43.6713 194.845 44.5661 195.632 45.6034 195.566Z" fill="#2D2D2D"/>
<path d="M46.0624 202.721C47.0997 202.654 47.8867 201.76 47.8202 200.722C47.7537 199.685 46.8589 198.898 45.8216 198.964C44.7843 199.031 43.9973 199.926 44.0638 200.963C44.1303 202 45.0251 202.787 46.0624 202.721Z" fill="#2D2D2D"/>
<path d="M46.5213 209.876C47.5587 209.81 48.3456 208.915 48.2792 207.878C48.2127 206.84 47.3179 206.053 46.2805 206.12C45.2432 206.186 44.4562 207.081 44.5227 208.118C44.5892 209.156 45.484 209.943 46.5213 209.876Z" fill="#2D2D2D"/>
<path d="M46.9803 217.031C48.0176 216.965 48.8046 216.07 48.7381 215.033C48.6716 213.995 47.7768 213.208 46.7395 213.275C45.7022 213.341 44.9152 214.236 44.9817 215.273C45.0482 216.311 45.943 217.098 46.9803 217.031Z" fill="#2D2D2D"/>
<path d="M47.4432 224.276C48.4805 224.209 49.2675 223.314 49.201 222.277C49.1345 221.24 48.2397 220.453 47.2024 220.519C46.1651 220.586 45.3781 221.48 45.4446 222.518C45.5111 223.555 46.4059 224.342 47.4432 224.276Z" fill="#2D2D2D"/>
<path d="M47.9022 231.431C48.9395 231.364 49.7265 230.469 49.66 229.432C49.5935 228.395 48.6987 227.608 47.6614 227.674C46.6241 227.741 45.8371 228.635 45.9036 229.673C45.9701 230.71 46.8649 231.497 47.9022 231.431Z" fill="#2D2D2D"/>
<path d="M48.3612 238.586C49.3985 238.519 50.1855 237.624 50.119 236.587C50.0525 235.55 49.1577 234.763 48.1204 234.829C47.0831 234.896 46.2961 235.79 46.3626 236.828C46.4291 237.865 47.3239 238.652 48.3612 238.586Z" fill="#2D2D2D"/>
<path d="M48.8202 245.741C49.8575 245.674 50.6445 244.78 50.578 243.742C50.5115 242.705 49.6167 241.918 48.5794 241.984C47.5421 242.051 46.7551 242.946 46.8216 243.983C46.8881 245.02 47.7829 245.807 48.8202 245.741Z" fill="#2D2D2D"/>
<path d="M62.1346 453.416C63.1719 453.35 63.9589 452.455 63.8924 451.418C63.8259 450.381 62.9311 449.594 61.8938 449.66C60.8565 449.726 60.0695 450.621 60.136 451.659C60.2025 452.696 61.0973 453.483 62.1346 453.416Z" fill="#2D2D2D"/>
<path d="M62.5917 460.572C63.629 460.505 64.416 459.61 64.3495 458.573C64.283 457.536 63.3882 456.749 62.3509 456.815C61.3136 456.882 60.5266 457.776 60.5931 458.814C60.6596 459.851 61.5544 460.638 62.5917 460.572Z" fill="#2D2D2D"/>
<path d="M63.0506 467.727C64.0879 467.66 64.8749 466.765 64.8084 465.728C64.742 464.691 63.8471 463.904 62.8098 463.97C61.7725 464.037 60.9855 464.931 61.052 465.969C61.1185 467.006 62.0133 467.793 63.0506 467.727Z" fill="#2D2D2D"/>
<path d="M63.5155 474.971C64.5528 474.905 65.3398 474.01 65.2733 472.973C65.2068 471.935 64.312 471.148 63.2747 471.215C62.2374 471.281 61.4504 472.176 61.5169 473.213C61.5834 474.251 62.4782 475.038 63.5155 474.971Z" fill="#2D2D2D"/>
<path d="M63.9745 482.126C65.0118 482.06 65.7988 481.165 65.7323 480.128C65.6658 479.09 64.771 478.303 63.7337 478.37C62.6964 478.436 61.9094 479.331 61.9759 480.368C62.0424 481.406 62.9372 482.193 63.9745 482.126Z" fill="#2D2D2D"/>
<path d="M64.4335 489.281C65.4708 489.215 66.2578 488.32 66.1913 487.283C66.1248 486.245 65.23 485.458 64.1927 485.525C63.1554 485.591 62.3684 486.486 62.4349 487.523C62.5013 488.561 63.3962 489.348 64.4335 489.281Z" fill="#2D2D2D"/>
<path d="M64.8924 496.436C65.9297 496.37 66.7167 495.475 66.6502 494.438C66.5838 493.4 65.6889 492.613 64.6516 492.68C63.6143 492.746 62.8273 493.641 62.8938 494.679C62.9603 495.716 63.8551 496.503 64.8924 496.436Z" fill="#2D2D2D"/>
<path d="M65.3495 503.591C66.3868 503.525 67.1738 502.63 67.1073 501.593C67.0408 500.555 66.146 499.768 65.1087 499.835C64.0714 499.901 63.2844 500.796 63.3509 501.834C63.4174 502.871 64.3122 503.658 65.3495 503.591Z" fill="#2D2D2D"/>
<path d="M65.8143 510.836C66.8516 510.769 67.6386 509.875 67.5721 508.837C67.5056 507.8 66.6108 507.013 65.5735 507.08C64.5362 507.146 63.7492 508.041 63.8157 509.078C63.8822 510.115 64.777 510.902 65.8143 510.836Z" fill="#2D2D2D"/>
<path d="M66.2733 517.991C67.3106 517.924 68.0976 517.03 68.0311 515.992C67.9646 514.955 67.0698 514.168 66.0325 514.235C64.9952 514.301 64.2082 515.196 64.2747 516.233C64.3412 517.27 65.236 518.057 66.2733 517.991Z" fill="#2D2D2D"/>
<path d="M66.7323 525.146C67.7696 525.08 68.5566 524.185 68.4901 523.147C68.4236 522.11 67.5288 521.323 66.4915 521.39C65.4542 521.456 64.6672 522.351 64.7337 523.388C64.8002 524.426 65.695 525.212 66.7323 525.146Z" fill="#2D2D2D"/>
</g>
<path opacity="0.2" d="M56.1055 353.593C54.5854 353.696 53.1593 352.535 53.0501 350.926L51.9343 334.473C51.8312 332.953 52.9921 331.527 54.6016 331.418C56.1216 331.315 57.5478 332.476 57.6569 334.085L58.7728 350.538C58.8759 352.058 57.6256 353.49 56.1055 353.593Z" fill="#2D2D2D"/>
<g opacity="0.2" filter="url(#filter1_f_1046_140)">
<path d="M55.179 99.8261C52.4137 101.671 50.0486 104.277 48.3221 107.279C46.5956 110.28 45.7691 113.66 45.6452 117.08C45.5803 118.747 45.7826 120.483 45.8049 122.144L46.1388 127.197L46.8067 137.302L49.554 177.543L55.0541 258.111L49.9024 177.52L47.3294 137.267L46.6615 127.162L46.3276 122.11C46.2182 120.454 46.1088 118.799 46.2607 117.127C46.7814 110.443 50.0429 104.19 55.179 99.8261Z" fill="white"/>
</g>
<g opacity="0.2" filter="url(#filter2_f_1046_140)">
<path d="M54.3079 99.8841C51.7744 101.714 49.613 104.307 48.0411 107.298C46.4692 110.289 45.7269 113.663 45.6311 117.082C45.5803 118.747 45.7756 120.484 45.8049 122.145L46.1388 127.197L46.8067 137.302L49.5469 177.544L55.0331 258.113L49.8673 177.522L47.2873 137.271L46.6194 127.166L46.2854 122.113C46.176 120.458 46.0666 118.803 46.1975 117.132C46.6409 110.453 49.6073 104.22 54.3079 99.8841Z" fill="white"/>
</g>
<g opacity="0.2" filter="url(#filter3_f_1046_140)">
<path d="M53.4368 99.9417C51.1351 101.756 49.1775 104.335 47.7601 107.316C46.3427 110.297 45.6848 113.666 45.6171 117.082C45.5803 118.747 45.7685 120.485 45.8049 122.145L46.1388 127.197L46.8067 137.302L49.5399 177.544L55.012 258.114L49.8322 177.525L47.2451 137.273L46.5772 127.168L46.2433 122.116C46.1339 120.461 46.0245 118.805 46.1343 117.136C46.5004 110.462 49.1717 104.248 53.4368 99.9417Z" fill="white"/>
</g>
<defs>
<filter id="filter0_d_1046_140" x="0.000526428" y="6.10352e-05" width="898.117" height="708.872" filterUnits="userSpaceOnUse" color-interpolation-filters="sRGB">
<feFlood flood-opacity="0" result="BackgroundImageFix"/>
<feColorMatrix in="SourceAlpha" type="matrix" values="0 0 0 0 0 0 0 0 0 0 0 0 0 0 0 0 0 0 127 0" result="hardAlpha"/>
<feOffset dx="50.7923" dy="33.1705"/>
<feGaussianBlur stdDeviation="43.0179"/>
<feColorMatrix type="matrix" values="0 0 0 0 0.565365 0 0 0 0 0.601896 0 0 0 0 0.695833 0 0 0 0.25 0"/>
<feBlend mode="normal" in2="BackgroundImageFix" result="effect1_dropShadow_1046_140"/>
<feBlend mode="normal" in="SourceGraphic" in2="effect1_dropShadow_1046_140" result="shape"/>
</filter>
<filter id="filter1_f_1046_140" x="44.5962" y="98.7896" width="11.62" height="160.358" filterUnits="userSpaceOnUse" color-interpolation-filters="sRGB">
<feFlood flood-opacity="0" result="BackgroundImageFix"/>
<feBlend mode="normal" in="SourceGraphic" in2="BackgroundImageFix" result="shape"/>
<feGaussianBlur stdDeviation="0.518288" result="effect1_foregroundBlur_1046_140"/>
</filter>
<filter id="filter2_f_1046_140" x="44.5865" y="98.8475" width="11.4833" height="160.302" filterUnits="userSpaceOnUse" color-interpolation-filters="sRGB">
<feFlood flood-opacity="0" result="BackgroundImageFix"/>
<feBlend mode="normal" in="SourceGraphic" in2="BackgroundImageFix" result="shape"/>
<feGaussianBlur stdDeviation="0.518288" result="effect1_foregroundBlur_1046_140"/>
</filter>
<filter id="filter3_f_1046_140" x="44.5767" y="98.9051" width="11.4716" height="160.246" filterUnits="userSpaceOnUse" color-interpolation-filters="sRGB">
<feFlood flood-opacity="0" result="BackgroundImageFix"/>
<feBlend mode="normal" in="SourceGraphic" in2="BackgroundImageFix" result="shape"/>
<feGaussianBlur stdDeviation="0.518288" result="effect1_foregroundBlur_1046_140"/>
</filter>
<linearGradient id="paint0_linear_1046_140" x1="381.951" y1="74.378" x2="414.586" y2="568.138" gradientUnits="userSpaceOnUse">
<stop stop-color="#E8CA9D"/>
<stop offset="1" stop-color="#FFB7C0"/>
</linearGradient>
<linearGradient id="paint1_linear_1046_140" x1="82.5715" y1="565.053" x2="84.1165" y2="588.428" gradientUnits="userSpaceOnUse">
<stop stop-color="#06101E" stop-opacity="0"/>
<stop offset="1" stop-color="#30050B"/>
</linearGradient>
<linearGradient id="paint2_linear_1046_140" x1="51.3731" y1="100.82" x2="52.4883" y2="117.693" gradientUnits="userSpaceOnUse">
<stop stop-color="white" stop-opacity="0"/>
<stop offset="0.4782" stop-color="white"/>
<stop offset="1" stop-color="white" stop-opacity="0"/>
</linearGradient>
<linearGradient id="paint3_linear_1046_140" x1="399.111" y1="73.2435" x2="431.746" y2="567.003" gradientUnits="userSpaceOnUse">
<stop stop-color="#F3D19E"/>
<stop offset="1" stop-color="#FFAFBA"/>
</linearGradient>
</defs>
</svg>
