<svg width="245" height="153" viewBox="0 0 245 153" fill="none" xmlns="http://www.w3.org/2000/svg">
<path d="M49.493 6.01586C44.86 4.17819 40.316 2.17026 35.869 0C21.4169 9.97132 9.19957 22.3902 0 36.5589C15.6369 60.6421 39.9924 79.6696 69.2214 90.2156C83.1494 95.2409 98.184 98.3404 113.909 99.1433H130.296C146.017 98.3406 173.65 113.595 133.525 152.092C162.758 141.546 228.567 60.6448 244.205 36.5589C235.032 22.4305 222.858 10.0421 208.46 0.0852605C204.064 2.22496 199.574 4.20615 194.997 6.02118C175.837 13.6192 155.156 18.3054 133.525 19.5196C129.795 19.729 126.036 19.8352 122.252 19.8352C118.468 19.8352 114.709 19.729 110.979 19.5196C89.3424 18.3051 68.6565 13.617 49.493 6.01586Z" fill="white"/>
</svg>
