<svg width="40" height="40" viewBox="0 0 40 40" fill="none" xmlns="http://www.w3.org/2000/svg">
<path d="M30.0007 18.3333V9.99996C30.0007 9.1159 29.6495 8.26806 29.0243 7.64294C28.3992 7.01782 27.5514 6.66663 26.6673 6.66663C25.7833 6.66663 24.9354 7.01782 24.3103 7.64294C23.6852 8.26806 23.334 9.1159 23.334 9.99996" stroke="#FF5269" stroke-width="2.25" stroke-linecap="round" stroke-linejoin="round"/>
<path d="M23.3327 16.6667V6.66671C23.3327 5.78265 22.9815 4.93481 22.3564 4.30968C21.7312 3.68456 20.8834 3.33337 19.9993 3.33337C19.1153 3.33337 18.2674 3.68456 17.6423 4.30968C17.0172 4.93481 16.666 5.78265 16.666 6.66671V10" stroke="#FF5269" stroke-width="2.25" stroke-linecap="round" stroke-linejoin="round"/>
<path d="M16.6667 17.5V9.99996C16.6667 9.1159 16.3155 8.26806 15.6904 7.64294C15.0652 7.01782 14.2174 6.66663 13.3333 6.66663C12.4493 6.66663 11.6014 7.01782 10.9763 7.64294C10.3512 8.26806 10 9.1159 10 9.99996V23.3333" stroke="#FF5269" stroke-width="2.25" stroke-linecap="round" stroke-linejoin="round"/>
<path d="M30.0008 13.3333C30.0008 12.4493 30.352 11.6014 30.9771 10.9763C31.6023 10.3512 32.4501 10 33.3342 10C34.2182 10 35.0661 10.3512 35.6912 10.9763C36.3163 11.6014 36.6675 12.4493 36.6675 13.3333V23.3333C36.6675 26.8696 35.2627 30.2609 32.7622 32.7614C30.2618 35.2619 26.8704 36.6667 23.3342 36.6667H20.0008C15.3342 36.6667 12.5008 35.2333 10.0175 32.7667L4.01749 26.7667C3.44405 26.1316 3.1368 25.3003 3.15936 24.4449C3.18192 23.5895 3.53257 22.7756 4.13869 22.1716C4.74481 21.5676 5.55999 21.2199 6.41544 21.2003C7.27089 21.1808 8.1011 21.491 8.73416 22.0667L11.6675 25" stroke="#FF5269" stroke-width="2.25" stroke-linecap="round" stroke-linejoin="round"/>
</svg>
