<svg width="252" height="235" viewBox="0 0 252 235" fill="none" xmlns="http://www.w3.org/2000/svg">
<path d="M217.448 79.0007C232.68 79.0007 245.028 91.7277 245.028 107.427C245.028 123.127 232.68 135.854 217.448 135.854C202.217 135.854 189.869 123.127 189.869 107.427C189.869 91.7278 202.217 79.0009 217.448 79.0007ZM217.602 89.1013C207.803 89.1015 199.859 97.3083 199.859 107.431C199.859 117.555 207.803 125.761 217.602 125.761C227.4 125.761 235.345 117.555 235.345 107.431C235.345 97.3081 227.4 89.1013 217.602 89.1013Z" fill="url(#paint0_linear_1677_8081)"/>
<path d="M91.9316 0C142.704 0.000157288 183.862 42.4343 183.862 94.7793C183.862 128.767 166.509 158.575 140.44 175.303C139.479 178.715 139.047 182.285 139.191 185.891C139.547 194.727 143.334 203.077 149.742 209.21C152.439 211.311 155.425 213.036 158.625 214.312C167.371 217.798 176.991 217.64 185.367 213.873C193.743 210.106 200.19 203.037 203.29 194.224C205.344 188.384 205.816 182.094 204.739 175.985C204.076 172.218 205.665 168.227 209.16 166.655C212.847 164.997 217.256 166.624 218.426 170.489C219.67 174.6 220.413 178.846 220.632 183.126C220.974 189.83 220.022 196.49 217.829 202.725C215.637 208.959 212.246 214.647 207.854 219.463C203.46 224.279 198.15 228.13 192.225 230.795C186.3 233.46 179.875 234.887 173.32 234.994C172.287 235.011 171.254 234.995 170.222 234.946C164.791 234.815 159.411 233.805 154.301 231.941C148.194 229.715 142.59 226.319 137.81 221.949C133.029 217.579 129.163 212.318 126.436 206.47C123.708 200.621 122.172 194.298 121.913 187.861C121.867 186.709 121.863 185.556 121.898 184.406C112.505 187.744 102.424 189.559 91.9316 189.559C41.1594 189.559 7.99978e-05 147.124 0 94.7793C0 42.4342 41.1594 0 91.9316 0ZM93.7695 30.3223C58.2292 30.3225 29.4182 60.0189 29.418 96.6514C29.418 133.284 58.2291 162.981 93.7695 162.981C108.36 162.981 121.816 157.975 132.61 149.539C133.197 145.971 133.217 142.301 132.636 138.663C131.198 129.668 126.211 121.606 118.769 116.252C111.326 110.898 102.039 108.689 92.9512 110.112C86.4752 111.126 80.4787 113.926 75.6094 118.117C72.7248 120.6 68.453 121.288 65.3701 119.07C62.2236 116.807 61.5006 112.396 64.2197 109.626C67.0965 106.696 70.3384 104.126 73.874 101.982C79.4237 98.6178 85.5895 96.3678 92.0176 95.3613C98.4455 94.355 105.011 94.6113 111.339 96.1162C117.667 97.6212 123.634 100.345 128.898 104.132C134.163 107.919 138.622 112.697 142.021 118.189C144.753 122.603 146.755 127.411 147.965 132.431C154.393 122.108 158.122 109.829 158.122 96.6514C158.122 60.0188 129.31 30.3223 93.7695 30.3223Z" fill="url(#paint1_linear_1677_8081)"/>
<path d="M215.047 116.737C216.84 117.099 217.999 118.845 217.637 120.638L212.734 144.915C212.735 144.915 212.736 144.914 212.738 144.914L213.767 139.82C214.129 138.027 215.876 136.867 217.668 137.23C219.449 137.589 220.603 139.314 220.264 141.093C220.643 139.322 222.378 138.182 224.158 138.541C225.926 138.898 227.078 140.602 226.762 142.369C227.156 140.619 228.879 139.496 230.646 139.853C232.439 140.215 233.599 141.962 233.237 143.754L230.678 156.423C230.669 156.473 230.662 156.522 230.653 156.572L227.732 171.031C226.857 175.362 222.637 178.164 218.306 177.289L208.021 175.212C206.881 174.982 205.848 174.517 204.959 173.882C203.868 174.001 202.785 173.46 202.11 172.315L193.776 158.164C192.702 156.34 193.069 153.673 194.598 152.208C196.126 150.742 198.236 151.033 199.31 152.858L203.081 159.259C203.432 157.522 203.781 155.794 204.143 154.006C204.147 153.984 204.15 153.961 204.154 153.939L211.145 119.327C211.507 117.534 213.254 116.375 215.047 116.737Z" fill="#FF766B"/>
<path d="M236.405 95.4117C240.766 95.6329 244.33 97.2881 246.043 99.8874L247.83 102.6" stroke="black" stroke-linecap="round"/>
<path d="M236.448 95.4337C240.638 97.2184 243.715 100.246 244.987 103.834L245.201 104.438" stroke="black" stroke-linecap="round"/>
<path d="M224.148 84.9063C223.091 80.5495 220.817 77.2576 218.022 76.0377L215.083 74.7548" stroke="black" stroke-linecap="round"/>
<path d="M224.12 84.8657C221.612 80.9864 218.127 78.456 214.49 77.8727L213.847 77.7695" stroke="black" stroke-linecap="round"/>
<defs>
<linearGradient id="paint0_linear_1677_8081" x1="217.449" y1="79.0007" x2="217.449" y2="135.854" gradientUnits="userSpaceOnUse">
<stop stop-color="#FFD77A"/>
<stop offset="0.5" stop-color="#FFC670"/>
<stop offset="1" stop-color="#FF5269"/>
</linearGradient>
<linearGradient id="paint1_linear_1677_8081" x1="109.668" y1="-6.85547e-07" x2="109.668" y2="244.401" gradientUnits="userSpaceOnUse">
<stop stop-color="#FFD77A"/>
<stop offset="0.21" stop-color="#FFC670"/>
<stop offset="1" stop-color="#FF5269"/>
</linearGradient>
</defs>
</svg>
